<?xml version="1.0" encoding="UTF-8"?>
<svg id="Layer_2" data-name="Layer 2" xmlns="http://www.w3.org/2000/svg" viewBox="0 0 846.18 906.03">
  <defs>
    <style>
      .cls-1 {
        fill: none;
        stroke: #a0cfbf;
        stroke-miterlimit: 10;
        stroke-width: 9px;
      }
    </style>
  </defs>
  <path class="cls-1" d="m218.83,333.44c8.43-16.84,21.57-41.36,40.07-69.59,23.43-35.76,35.47-53.74,51.14-58.8,14.46-4.66,29.94-1.5,101.03,42.95,62.25,38.92,93.44,58.71,96.3,74.58,0,0,5.07,28.09-56.65,127.65-.7,1.13-1.41,2.26-1.41,2.26-.88,1.4-1.86,2.96-2.97,4.7-39.7,62.06-59.55,93.09-81.68,97.95-48.28,10.6-66.08-57-145.84-65.16-50.64-5.18-70.84,19.27-106.24.96-38.73-20.03-49.8-68.37-51.25-75-7.29-33.43,6.34-41.35,10-101.25,3.76-61.46-9.91-64.26,0-90,18.01-46.78,62.38-35.47,98.75-87.5,34.76-49.74,15.58-86.75,47.08-108.39,17.52-12.04,46.16-13.82,96.05,4.64,56.65,20.96,86.49,22.59,107.8,16.19,48.84-14.67,54.91-42.02,100.32-44.94,48.81-3.14,86.54,32.83,88.75,35,43.46,42.64,15.73,85.93,52.5,145,40.37,64.87,94.21,45.45,111.25,95,15.67,45.55-18.72,99.95-87.5,208.75-18.95,29.97-36.52,53.77-45,65-20.77,27.52-49.34,62.3-67.5,80-84.89,82.75-192.15,35.89-240.96,103.34-14.01,19.36-27.45,54-12.79,119.16"/>
  <path class="cls-1" d="m1.95,680.61s94.87,45.74,89.79,221.93"/>
  <path class="cls-1" d="m845.62,680.61s-54.79,6.78-68.05,64.38,1.98,98.26-70.86,157.55"/>
</svg>